# Blender 4.0.2
# www.blender.org
mtllib двутавр.mtl
o Cube.001
v 3.043991 0.089628 0.006408
v 3.043991 0.087002 0.005964
v 3.043991 0.082397 0.005554
v 3.043991 0.076013 0.005197
v 3.043991 0.068129 0.004907
v 3.043991 0.059090 0.004698
v 3.043991 0.049292 0.004579
v 3.044001 0.091623 0.013056
v 3.044016 0.093860 0.023142
v 3.043997 0.100000 0.030000
v 3.044015 0.098095 0.028343
v 3.043991 0.089628 -0.006408
v 3.043991 0.087002 -0.005964
v 3.043991 0.082397 -0.005554
v 3.043991 0.076013 -0.005197
v 3.043991 0.068129 -0.004907
v 3.043991 0.059090 -0.004698
v 3.043991 0.049292 -0.004579
v 3.044001 0.091623 -0.013056
v 3.044016 0.093860 -0.023142
v 3.043997 0.100000 -0.030000
v 3.044015 0.098095 -0.028343
v 3.043991 -0.089628 0.006408
v 3.043991 -0.087002 0.005964
v 3.043991 -0.082397 0.005554
v 3.043991 -0.076013 0.005197
v 3.043991 -0.068129 0.004907
v 3.043991 -0.059090 0.004698
v 3.043991 -0.049292 0.004579
v 3.044001 -0.091623 0.013056
v 3.044016 -0.093860 0.023142
v 3.043997 -0.100000 0.030000
v 3.044015 -0.098095 0.028343
v 3.043991 -0.089628 -0.006408
v 3.043991 -0.087002 -0.005964
v 3.043991 -0.082397 -0.005554
v 3.043991 -0.076013 -0.005197
v 3.043991 -0.068129 -0.004907
v 3.043991 -0.059090 -0.004698
v 3.043991 -0.049292 -0.004579
v 3.044001 -0.091623 -0.013056
v 3.044016 -0.093860 -0.023142
v 3.043997 -0.100000 -0.030000
v 3.044015 -0.098095 -0.028343
v 1.043991 0.089628 0.006408
v 1.043991 0.087002 0.005964
v 1.043991 0.082397 0.005554
v 1.043991 0.076013 0.005197
v 1.043991 0.068129 0.004907
v 1.043991 0.059090 0.004698
v 1.043991 0.049292 0.004579
v 1.043981 0.091623 0.013056
v 1.043966 0.093860 0.023142
v 1.043985 0.100000 0.030000
v 1.043967 0.098095 0.028343
v 1.043991 0.089628 -0.006408
v 1.043991 0.087002 -0.005964
v 1.043991 0.082397 -0.005554
v 1.043991 0.076013 -0.005197
v 1.043991 0.068129 -0.004907
v 1.043991 0.059090 -0.004698
v 1.043991 0.049292 -0.004579
v 1.043981 0.091623 -0.013056
v 1.043966 0.093860 -0.023142
v 1.043985 0.100000 -0.030000
v 1.043967 0.098095 -0.028343
v 1.043991 -0.089628 0.006408
v 1.043991 -0.087002 0.005964
v 1.043991 -0.082397 0.005554
v 1.043991 -0.076013 0.005197
v 1.043991 -0.068129 0.004907
v 1.043991 -0.059090 0.004698
v 1.043991 -0.049292 0.004579
v 1.043981 -0.091623 0.013056
v 1.043966 -0.093860 0.023142
v 1.043985 -0.100000 0.030000
v 1.043967 -0.098095 0.028343
v 1.043991 -0.089628 -0.006408
v 1.043991 -0.087002 -0.005964
v 1.043991 -0.082397 -0.005554
v 1.043991 -0.076013 -0.005197
v 1.043991 -0.068129 -0.004907
v 1.043991 -0.059090 -0.004698
v 1.043991 -0.049292 -0.004579
v 1.043981 -0.091623 -0.013056
v 1.043966 -0.093860 -0.023142
v 1.043985 -0.100000 -0.030000
v 1.043967 -0.098095 -0.028343
vn -0.0000 0.7186 -0.6954
vn -0.0000 0.6563 -0.7545
vn -0.0000 -0.0061 -1.0000
vn -0.0000 -0.0176 -0.9998
vn 1.0000 -0.0067 -0.0000
vn 1.0000 -0.0003 -0.0000
vn -0.0000 -0.9578 -0.2875
vn -0.0000 -0.9677 -0.2521
vn -0.0000 0.0061 -1.0000
vn -0.0000 -0.9001 -0.4358
vn -0.0000 -0.1279 -0.9918
vn -0.0000 -0.1669 -0.9860
vn -0.0000 -0.0723 -0.9974
vn -0.0000 -0.0463 -0.9989
vn -0.0000 -0.0299 -0.9996
vn 1.0000 -0.0000 -0.0000
vn 1.0000 -0.0033 -0.0000
vn -0.0000 -0.7186 -0.6954
vn 1.0000 0.0096 -0.0000
vn 1.0000 0.0074 -0.0000
vn -0.0000 -0.0061 1.0000
vn -0.0000 0.0061 1.0000
vn -0.0000 -0.7186 0.6954
vn -0.0000 -0.9001 0.4358
vn 1.0000 0.0067 -0.0000
vn 1.0000 0.0003 -0.0000
vn -0.0000 -1.0000 -0.0000
vn -0.0000 0.1669 -0.9860
vn -0.0000 0.1279 -0.9918
vn -0.0000 0.0723 -0.9974
vn -0.0000 0.0463 -0.9989
vn -0.0000 0.0299 -0.9996
vn -0.0000 0.0176 -0.9998
vn 1.0000 0.0033 -0.0000
vn -0.0000 0.9677 -0.2521
vn -0.0000 0.9578 -0.2875
vn -1.0000 0.0067 -0.0000
vn -1.0000 0.0033 -0.0000
vn -0.0000 0.9001 -0.4358
vn 1.0000 -0.0096 -0.0000
vn 1.0000 -0.0074 -0.0000
vn -0.0000 0.9001 0.4358
vn -0.0000 0.7186 0.6954
vn -0.0000 -0.0176 0.9998
vn -0.0000 0.6563 0.7545
vn -0.0000 0.9677 0.2521
vn -0.0000 0.9578 0.2875
vn -0.0000 0.0176 0.9998
vn -0.0000 0.0299 0.9996
vn -0.0000 0.0463 0.9989
vn -0.0000 0.0723 0.9974
vn -0.0000 0.1279 0.9918
vn -0.0000 0.1669 0.9860
vn -0.0000 1.0000 -0.0000
vn -0.0000 -0.6563 0.7545
vn -0.0000 -0.1669 0.9860
vn -0.0000 -0.1279 0.9918
vn -0.0000 -0.0299 0.9996
vn -0.0000 -0.0463 0.9989
vn -0.0000 -0.0723 0.9974
vn -0.0000 -0.9677 0.2521
vn -0.0000 -0.9578 0.2875
vn -1.0000 -0.0067 -0.0000
vn -1.0000 -0.0003 -0.0000
vn -1.0000 -0.0000 -0.0000
vn -1.0000 -0.0033 -0.0000
vn -1.0000 0.0096 -0.0000
vn -1.0000 0.0074 -0.0000
vn -1.0000 0.0003 -0.0000
vn -1.0000 -0.0096 -0.0000
vn -1.0000 -0.0074 -0.0000
vn -0.0000 -0.6563 -0.7545
vt 0.000001 0.451136
vt 0.999999 0.451136
vt 0.999990 0.450187
vt 0.000010 0.450187
vt 0.999987 0.524553
vt 0.000013 0.524553
vt 0.000013 0.529435
vt 0.999987 0.529435
vt 0.493547 0.545640
vt 0.506453 0.545640
vt 0.511439 0.546754
vt 0.488561 0.546754
vt 0.999987 0.503168
vt 0.000013 0.503168
vt 0.000008 0.506453
vt 0.999992 0.506453
vt 0.999987 0.475447
vt 0.000013 0.475447
vt 0.000000 0.511439
vt 1.000000 0.511439
vt 0.999987 0.543338
vt 0.000013 0.543338
vt 0.000013 0.544646
vt 0.999987 0.544646
vt 0.999987 0.541044
vt 0.000013 0.541044
vt 0.999987 0.537864
vt 0.000013 0.537864
vt 0.999987 0.533937
vt 0.000013 0.533937
vt 0.497052 0.543338
vt 0.502948 0.543338
vt 0.503168 0.544646
vt 0.496832 0.544646
vt 0.000001 0.514009
vt 0.999999 0.514009
vt 0.502263 0.524553
vt 0.497737 0.524553
vt 0.497737 0.475447
vt 0.502263 0.475447
vt 0.497255 0.541044
vt 0.502745 0.541044
vt 0.497431 0.537864
vt 0.502569 0.537864
vt 0.497575 0.533937
vt 0.502425 0.533937
vt 0.497678 0.529435
vt 0.502322 0.529435
vt 0.485172 0.549813
vt 0.485991 0.548864
vt 0.514009 0.548864
vt 0.514828 0.549813
vt 0.999999 0.485991
vt 0.000001 0.485991
vt 0.000000 0.488561
vt 1.000000 0.488561
vt 0.506453 0.454360
vt 0.493547 0.454360
vt 0.488561 0.453246
vt 0.511439 0.453246
vt 0.000010 0.485172
vt 0.000010 0.514828
vt 0.999990 0.514828
vt 0.999990 0.485172
vt 0.999987 0.455354
vt 0.000013 0.455354
vt 0.000013 0.456662
vt 0.999987 0.456662
vt 0.000013 0.458956
vt 0.999987 0.458956
vt 0.000013 0.462136
vt 0.999987 0.462136
vt 0.000013 0.466063
vt 0.999987 0.466063
vt 0.000013 0.470566
vt 0.999987 0.470566
vt 0.497052 0.456662
vt 0.496832 0.455354
vt 0.503168 0.455354
vt 0.502948 0.456662
vt 0.497255 0.458956
vt 0.502745 0.458956
vt 0.497431 0.462136
vt 0.502569 0.462136
vt 0.497575 0.466063
vt 0.502425 0.466063
vt 0.497678 0.470566
vt 0.502322 0.470566
vt 0.485172 0.450187
vt 0.514828 0.450187
vt 0.514009 0.451136
vt 0.485991 0.451136
vt 0.999992 0.493547
vt 0.999987 0.496832
vt 0.000013 0.496832
vt 0.000008 0.493547
vt 0.999990 0.549813
vt 0.000010 0.549813
vt 0.000001 0.548864
vt 0.999999 0.548864
s 1
usemtl Steel.001
f 88/1/1 44/2/1 43/3/2 87/4/2
f 18/5/3 62/6/3 61/7/4 17/8/4
f 8/9/5 19/10/5 20/11/6 9/12/6
f 12/13/7 56/14/7 63/15/8 19/16/8
f 62/6/3 18/5/3 40/17/9 84/18/9
f 19/16/8 63/15/8 64/19/10 20/20/10
f 13/21/11 57/22/11 56/23/12 12/24/12
f 14/25/13 58/26/13 57/22/11 13/21/11
f 15/27/14 59/28/14 58/26/13 14/25/13
f 16/29/15 60/30/15 59/28/14 15/27/14
f 17/8/4 61/7/4 60/30/15 16/29/15
f 2/31/16 13/32/16 12/33/17 1/34/17
f 64/19/10 66/35/18 22/36/18 20/20/10
f 8/9/5 1/34/17 12/33/17 19/10/5
f 18/37/16 7/38/16 29/39/16 40/40/16
f 3/41/16 14/42/16 13/32/16 2/31/16
f 4/43/16 15/44/16 14/42/16 3/41/16
f 5/45/16 16/46/16 15/44/16 4/43/16
f 6/47/16 17/48/16 16/46/16 5/45/16
f 7/38/16 18/37/16 17/48/16 6/47/16
f 10/49/19 11/50/20 22/51/20 21/52/19
f 7/5/21 51/6/21 73/18/22 29/17/22
f 9/12/6 20/11/6 22/51/20 11/50/20
f 11/53/23 55/54/23 53/55/24 9/56/24
f 41/57/25 30/58/25 31/59/26 42/60/26
f 76/61/27 87/62/27 43/63/27 32/64/27
f 34/65/28 78/66/28 79/67/29 35/68/29
f 35/68/29 79/67/29 80/69/30 36/70/30
f 36/70/30 80/69/30 81/71/31 37/72/31
f 37/72/31 81/71/31 82/73/32 38/74/32
f 38/74/32 82/73/32 83/75/33 39/76/33
f 24/77/16 23/78/34 34/79/34 35/80/16
f 39/76/33 83/75/33 84/18/9 40/17/9
f 85/15/35 78/14/36 34/13/36 41/16/35
f 74/58/37 67/78/38 78/79/38 85/57/37
f 42/20/39 44/36/1 88/35/1 86/19/39
f 25/81/16 24/77/16 35/80/16 36/82/16
f 26/83/16 25/81/16 36/82/16 37/84/16
f 27/85/16 26/83/16 37/84/16 38/86/16
f 28/87/16 27/85/16 38/86/16 39/88/16
f 29/39/16 28/87/16 39/88/16 40/40/16
f 32/89/40 43/90/40 44/91/41 33/92/41
f 75/55/42 77/54/43 33/53/43 31/56/42
f 42/60/26 31/59/26 33/92/41 44/91/41
f 85/15/35 41/16/35 42/20/39 86/19/39
f 50/7/44 51/6/21 7/5/21 6/8/44
f 33/2/43 77/1/43 76/4/45 32/3/45
f 30/93/46 23/94/47 67/95/47 74/96/46
f 72/75/48 28/76/48 29/17/22 73/18/22
f 71/73/49 27/74/49 28/76/48 72/75/48
f 70/71/50 26/72/50 27/74/49 71/73/49
f 69/69/51 25/70/51 26/72/50 70/71/50
f 68/67/52 24/68/52 25/70/51 69/69/51
f 67/66/53 23/65/53 24/68/52 68/67/52
f 54/61/54 10/64/54 21/63/54 65/62/54
f 10/97/55 54/98/55 55/99/23 11/100/23
f 45/23/56 46/22/57 2/21/57 1/24/56
f 49/30/58 50/7/44 6/8/44 5/29/58
f 48/28/59 49/30/58 5/29/58 4/27/59
f 47/26/60 48/28/59 4/27/59 3/25/60
f 46/22/57 47/26/60 3/25/60 2/21/57
f 52/96/61 45/95/62 1/94/62 8/93/61
f 41/57/25 34/79/34 23/78/34 30/58/25
f 63/10/63 52/9/63 53/12/64 64/11/64
f 46/31/65 45/34/66 56/33/66 57/32/65
f 63/10/63 56/33/66 45/34/66 52/9/63
f 62/37/65 84/40/65 73/39/65 51/38/65
f 47/41/65 46/31/65 57/32/65 58/42/65
f 48/43/65 47/41/65 58/42/65 59/44/65
f 49/45/65 48/43/65 59/44/65 60/46/65
f 50/47/65 49/45/65 60/46/65 61/48/65
f 51/38/65 50/47/65 61/48/65 62/37/65
f 54/49/67 65/52/67 66/51/68 55/50/68
f 64/11/64 53/12/64 55/50/68 66/51/68
f 74/58/37 85/57/37 86/60/69 75/59/69
f 68/77/65 79/80/65 78/79/38 67/78/38
f 69/81/65 80/82/65 79/80/65 68/77/65
f 70/83/65 81/84/65 80/82/65 69/81/65
f 71/85/65 82/86/65 81/84/65 70/83/65
f 72/87/65 83/88/65 82/86/65 71/85/65
f 73/39/65 84/40/65 83/88/65 72/87/65
f 76/89/70 77/92/71 88/91/71 87/90/70
f 75/55/42 31/56/42 30/93/46 74/96/46
f 75/59/69 86/60/69 88/91/71 77/92/71
f 66/99/18 65/98/72 21/97/72 22/100/18
f 53/55/24 52/96/61 8/93/61 9/56/24
